<svg width="64" height="64" xmlns="http://www.w3.org/2000/svg"><defs><style/></defs><path d="M46.933 54.933a3.733 3.733 0 1 0 7.467 0 3.733 3.733 0 0 0-7.467 0zm-30.933 0a3.733 3.733 0 1 0 7.467 0 3.733 3.733 0 0 0-7.467 0zm42.667-35.066C58 18 56.8 16.533 55.2 15.333c-1.333-.933-4.267-1.6-8.533-2-5.067-.533-10.267-.666-15.334-.666-5.733 0-11.333.266-17.066.933-.534-1.733-1.334-3.2-2.667-4.533C9.6 7.067 7.2 6 4.4 6H3.333c-1.066 0-2 .933-2 2s.934 2 2 2H4.4c1.733 0 3.2.667 4.4 1.867 1.2 1.2 1.867 2.8 2 4.533v1.2c.267 5.733 1.067 11.6 2.267 17.2.8 3.733 1.733 6.4 2.666 7.733 1.067 1.6 2.534 2.667 4.134 3.6 1.6.8 4.266 1.2 8.133 1.2 4.8 0 9.467-.4 14.133-1.333 3.867-.8 6.667-1.733 8.4-2.8 1.734-1.067 3.067-2.533 4.267-4.267 1.067-1.6 2.133-4.4 3.067-8.4.133-.666.266-1.333.4-1.866.933-4.134.933-7.067.4-8.8zm-4.267 8c-.133.666-.267 1.2-.4 1.866-.8 3.467-1.6 5.867-2.4 7.067a11.19 11.19 0 0 1-3.067 3.067c-1.333.8-3.6 1.6-7.066 2.266a55.81 55.81 0 0 1-13.334 1.2c-3.2 0-5.333-.266-6.4-.8-1.066-.533-2-1.333-2.666-2.266s-1.334-2.934-2-6.267c-1.2-5.467-1.867-10.933-2.134-16.4a169.5 169.5 0 0 1 16.534-.8c5.066 0 10 .267 14.933.667 3.6.4 5.867.8 6.667 1.333.933.667 1.6 1.467 2 2.533.133.934 0 3.2-.667 6.534z"/></svg>